<?xml version="1.0" encoding="UTF-8"?> <svg xmlns="http://www.w3.org/2000/svg" width="78" height="87" viewBox="0 0 78 87" fill="none"> <path d="M41.6306 27.1473C39.1305 25.7203 37.4267 24.1317 35.8824 22.6489C34.4978 21.2719 33.5901 19.5218 33.1075 17.8237C32.3037 15.2235 33.5192 13.0427 35.5328 11.3908C36.6982 10.3254 38.1829 9.47158 39.9349 9.25432C41.2619 8.98512 42.3754 8.34474 43.4889 7.70437C46.8834 6.04864 50.3354 6.03913 53.5278 8.1547C56.8797 10.376 59.8606 12.8108 62.1009 16.363C64.9278 20.7632 65.6315 25.5942 65.5391 30.5867C65.4928 33.0829 65.6062 35.6849 64.8696 38.1831C63.8694 41.4255 63.2943 44.7198 60.5922 47.0641C59.7441 47.6506 59.8537 48.8718 59.4844 49.7757C58.0092 54.0815 54.8821 56.3738 50.9569 58.1372C50.3203 58.4045 50.1088 58.7238 50.2164 59.2546C50.378 60.0508 50.2202 60.6354 49.6375 61.1681C45.77 64.5777 41.5293 67.5104 36.1676 68.3218C35.106 68.5371 34.1502 68.5929 33.1405 68.3832C31.7059 68.1216 31.0173 68.814 30.0634 69.5601C27.7864 71.9563 25.242 73.7159 22.3784 75.2639C21.636 75.6908 20.8398 75.8524 20.0956 75.5889C17.332 74.9061 15.8321 70.2366 17.5784 67.9481C18.1073 67.15 18.3189 66.8308 17.3612 66.1961C16.7227 65.773 16.1361 64.9249 15.7092 64.1825C14.215 61.5843 14.4209 59.1938 16.3806 57.2765C18.6058 55.3054 21.8982 55.1901 24.0809 57.096C25.5713 58.3134 27.1675 59.3712 28.6041 60.3232C29.5618 60.9578 30.2522 60.9559 30.9926 59.8386C33.0024 56.8059 34.8526 53.6674 37.0758 51.0058C37.9759 49.9942 38.6106 49.0365 39.8837 48.5019C41.528 47.7539 42.3742 46.4769 43.1666 44.9346C44.2225 42.648 44.7995 40.0441 46.5997 38.021C46.917 37.5421 46.3286 36.0036 46.0074 35.1016C45.419 33.5631 44.194 32.2918 43.8709 30.6995C43.7595 28.7879 42.8537 27.7282 41.6306 27.1473ZM63.7237 27.0865C63.1296 23.4767 62.5893 20.1323 60.6162 17.2168C59.0701 15.0436 57.1008 13.5089 55.2373 11.8145C51.7219 8.10656 47.843 7.37372 43.3889 9.93522C42.1157 10.4698 40.8426 11.0044 39.5156 11.2736C37.6578 11.6505 36.1212 12.9293 35.1173 14.7909C33.8498 17.3967 35.3421 19.3045 36.8344 21.2124C38.3267 23.1202 40.4018 24.4953 42.4768 25.8704C43.2749 26.3993 43.6461 26.1858 44.175 25.3877C44.9135 23.58 46.3444 22.4608 48.2021 22.0839C51.4927 21.2782 54.4697 22.3322 57.4986 22.9611C60.0487 23.2728 61.9122 24.9671 63.7237 27.0865ZM59.2044 25.2401C56.5447 23.7073 53.0388 23.4514 49.5868 23.4609C47.6751 23.5724 46.0847 24.5858 45.4 26.659C45.0326 28.2533 45.3018 29.5802 45.996 30.9592C47.0633 32.815 48.2364 34.5113 48.1363 36.7421C48.1382 37.4325 48.4036 37.3787 48.9882 37.5364C53.7153 37.6827 56.5922 40.9676 59.2038 44.3062C59.9499 45.2601 60.1615 44.9409 60.5846 44.3024C60.9019 43.8236 61.2193 43.3447 61.377 42.7601C62.4329 40.4735 62.9041 38.0292 63.3754 35.5849C63.9486 31.6001 63.2487 28.15 59.2044 25.2401ZM43.0165 48.2809C45.3607 50.983 48.1819 53.312 49.8896 56.2814C51.8512 55.0545 54.3456 54.4103 55.9861 52.2814C58.0497 49.5141 59.9518 45.9505 56.4383 42.933C54.6287 41.5041 53.296 39.702 50.8517 39.2308C49.2574 38.8634 47.8785 39.5576 47.2977 40.7807C46.4534 42.7481 45.4494 44.6096 44.6051 46.577C43.9166 47.2693 43.6531 48.0136 43.0165 48.2809ZM33.1348 66.312C34.356 66.2024 35.3118 66.1467 36.2676 66.0909C40.1428 65.443 43.3237 63.4161 46.4509 61.1238C48.8895 59.5238 49.0972 57.8237 47.2318 55.439C45.953 53.9023 44.6741 52.3657 43.1299 50.8829C41.9049 49.6117 40.7895 49.5616 39.4124 50.9462C36.7123 53.9809 34.7563 57.279 32.6946 60.7368C32.3773 61.2156 31.2656 62.5464 33.1253 62.8599C34.1349 63.0696 34.2965 63.8658 33.9272 64.7697C33.9291 65.4601 33.5579 65.6735 33.1348 66.312ZM24.0689 72.0196C22.8439 70.7484 22.8439 70.7484 25.5979 67.9791C24.9075 67.981 24.1113 68.1426 23.4209 68.1445C22.7305 68.1464 22.1459 67.9886 22.0382 67.4579C21.9305 66.9271 22.4075 66.554 22.8844 66.1809C23.998 65.5405 24.8461 64.954 26.0654 64.154C24.8423 63.5732 23.725 62.8327 22.6615 62.3577C22.1826 62.0403 21.7038 61.723 22.1269 61.0845C22.3904 60.3403 22.975 60.498 23.7192 60.7615C24.3039 60.9192 24.8366 61.5019 25.4212 61.6597C26.6443 62.2405 27.7078 62.7155 29.5656 62.3387C26.6943 61.1251 24.8309 59.4307 22.7558 58.0556C20.8404 56.7863 18.2403 57.5901 17.2364 59.4516C16.3382 61.1536 17.0881 63.4883 19.4824 65.075C21.0786 66.1328 21.1863 66.6636 19.9689 68.154C18.5399 69.9636 18.4899 71.079 20.088 72.8272C20.7803 73.5157 21.4726 74.2042 22.5323 73.2985C22.69 72.7138 23.3266 72.4465 24.0689 72.0196Z" fill="#0A0A0A"></path> </svg> 